<svg xmlns="http://www.w3.org/2000/svg" width="1200" height="800" viewBox="0 0 1200 800" fill="none">
<defs><linearGradient id="bg" x2="1200" y2="800" gradientUnits="userSpaceOnUse"><stop stop-color="#122224"/><stop offset="1" stop-color="#061214"/></linearGradient><linearGradient id="line"><stop stop-color="#94cccd" stop-opacity=".2"/><stop offset=".5" stop-color="#b9efdf"/><stop offset="1" stop-color="#94cccd" stop-opacity=".2"/></linearGradient></defs>
<rect width="1200" height="800" fill="url(#bg)"/>
<g font-family="Arial,sans-serif"><text x="70" y="88" fill="#9fbfb9" font-size="17" letter-spacing="3">NEURAL INTENT LAB</text><text x="70" y="165" fill="#ecf7f1" font-size="48">From signal to agency.</text><text x="70" y="209" fill="#9fb3b3" font-size="20">A research system with the person in the loop.</text>
<path d="M75 310 H120 L132 297 L145 328 L157 280 L168 344 L180 305 L194 311 H225 L240 298 L252 326 L269 264 L282 353 L294 300 L309 313 H338 L350 299 L368 331 L379 281 L393 339 L409 305 L423 310 H475 L487 293 L504 324 L516 277 L532 341 L547 304 L560 310 H602 L615 292 L632 328 L644 280 L660 340 L676 305 L690 310 H745 L756 295 L773 331 L785 283 L800 344 L813 305 L830 310 H875 L890 294 L906 327 L920 274 L934 340 L950 306 L965 310 H1125" stroke="url(#line)" stroke-width="2"/>
<g stroke="#385351"><rect x="70" y="395" width="240" height="170" rx="12"/><rect x="345" y="395" width="240" height="170" rx="12"/><rect x="620" y="395" width="240" height="170" rx="12"/><rect x="895" y="395" width="235" height="170" rx="12"/></g>
<g fill="#9fbfb9" font-size="14" letter-spacing="2"><text x="94" y="430">01 / EVIDENCE</text><text x="369" y="430">02 / UNCERTAINTY</text><text x="644" y="430">03 / AUTHORITY</text><text x="919" y="430">04 / AGENCY</text></g>
<g fill="#e6f5ed" font-size="25"><text x="94" y="478">EEG evaluation</text><text x="369" y="478">Calibration</text><text x="644" y="478">Policy checks</text><text x="919" y="478">Human decision</text></g>
<g fill="#a2b5b2" font-size="17"><text x="94" y="521">Participant-held-out folds</text><text x="369" y="521">Confidence in context</text><text x="644" y="521">Suggest · confirm · refuse</text><text x="919" y="521">Choose · cancel · undo</text></g>
<path d="M311 480 H343 M586 480 H618 M861 480 H893 M190 566 V631 H1013 V566 M463 565 V630 M741 565 V630" stroke="#6b9990" stroke-width="1.5"/>
<rect x="426" y="612" width="346" height="47" rx="24" fill="#152e2b" stroke="#43685f"/><text x="477" y="642" fill="#c2e3d6" font-size="18">Auditable event ledger</text>
<text x="70" y="742" fill="#8ca69f" font-size="15">SYSTEM OVERVIEW</text><text x="845" y="742" fill="#8ca69f" font-size="15">Public EEG · simulated actions</text></g></svg>
